<?xml version="1.0" encoding="UTF-8" standalone="no"?>
<!-- Created with Inkscape (http://www.inkscape.org/) -->
<svg
   xmlns:dc="http://purl.org/dc/elements/1.1/"
   xmlns:cc="http://web.resource.org/cc/"
   xmlns:rdf="http://www.w3.org/1999/02/22-rdf-syntax-ns#"
   xmlns:svg="http://www.w3.org/2000/svg"
   xmlns="http://www.w3.org/2000/svg"
   xmlns:sodipodi="http://sodipodi.sourceforge.net/DTD/sodipodi-0.dtd"
   xmlns:inkscape="http://www.inkscape.org/namespaces/inkscape"
   width="1052.3622"
   height="744.09448"
   id="svg2"
   sodipodi:version="0.32"
   inkscape:version="0.44.1"
   version="1.0"
   sodipodi:docbase="/home/acinom/af-arch/turbulence/doc"
   sodipodi:docname="turbulence.svg"
   inkscape:export-filename="/home/acinom/af-arch/turbulence/doc/turbulence.png"
   inkscape:export-xdpi="15.436545"
   inkscape:export-ydpi="15.436545">
  <defs
     id="defs4" />
  <sodipodi:namedview
     id="base"
     pagecolor="#ffffff"
     bordercolor="#666666"
     borderopacity="1.0"
     inkscape:pageopacity="0.0"
     inkscape:pageshadow="2"
     inkscape:zoom="0.14423804"
     inkscape:cx="1569.5884"
     inkscape:cy="151.2387"
     inkscape:document-units="px"
     inkscape:current-layer="layer1"
     width="1052.3622px"
     height="744.09448px"
     inkscape:window-width="1280"
     inkscape:window-height="949"
     inkscape:window-x="0"
     inkscape:window-y="25"
     showguides="true"
     inkscape:guide-bbox="true" />
  <metadata
     id="metadata7">
    <rdf:RDF>
      <cc:Work
         rdf:about="">
        <dc:format>image/svg+xml</dc:format>
        <dc:type
           rdf:resource="http://purl.org/dc/dcmitype/StillImage" />
      </cc:Work>
    </rdf:RDF>
  </metadata>
  <g
     inkscape:label="Capa 1"
     inkscape:groupmode="layer"
     id="layer1">
    <g
       id="g3055"
       style="opacity:0.68444441"
       transform="translate(88.24248,14.70708)"
       inkscape:export-filename="/home/acinom/af-arch/turbulence/doc/turbulence-logo.png"
       inkscape:export-xdpi="15.832354"
       inkscape:export-ydpi="15.832354">
      <path
         transform="translate(56.3771,56.37714)"
         d="M 416.70059 274.69351 A 45.346828 45.346828 0 1 1  326.00693,274.69351 A 45.346828 45.346828 0 1 1  416.70059 274.69351 z"
         sodipodi:ry="45.346828"
         sodipodi:rx="45.346828"
         sodipodi:cy="274.69351"
         sodipodi:cx="371.35376"
         id="path2996"
         style="opacity:1;fill:white;fill-opacity:1;fill-rule:nonzero;stroke:#204a87;stroke-width:10;stroke-linecap:round;stroke-linejoin:round;stroke-miterlimit:4;stroke-dasharray:none;stroke-opacity:1"
         sodipodi:type="arc" />
      <path
         transform="matrix(0.90069,0,0,0.90069,185.1759,48.11514)"
         d="M 416.70059 274.69351 A 45.346828 45.346828 0 1 1  326.00693,274.69351 A 45.346828 45.346828 0 1 1  416.70059 274.69351 z"
         sodipodi:ry="45.346828"
         sodipodi:rx="45.346828"
         sodipodi:cy="274.69351"
         sodipodi:cx="371.35376"
         id="path2998"
         style="opacity:1;fill:white;fill-opacity:1;fill-rule:nonzero;stroke:#204a87;stroke-width:10;stroke-linecap:round;stroke-linejoin:round;stroke-miterlimit:4;stroke-dasharray:none;stroke-opacity:1"
         sodipodi:type="arc" />
      <path
         transform="matrix(0.841104,0,0,0.841104,320.0575,69.38522)"
         d="M 416.70059 274.69351 A 45.346828 45.346828 0 1 1  326.00693,274.69351 A 45.346828 45.346828 0 1 1  416.70059 274.69351 z"
         sodipodi:ry="45.346828"
         sodipodi:rx="45.346828"
         sodipodi:cy="274.69351"
         sodipodi:cx="371.35376"
         id="path3000"
         style="opacity:1;fill:white;fill-opacity:1;fill-rule:nonzero;stroke:#204a87;stroke-width:10;stroke-linecap:round;stroke-linejoin:round;stroke-miterlimit:4;stroke-dasharray:none;stroke-opacity:1"
         sodipodi:type="arc" />
      <path
         transform="matrix(0.721932,0,0,0.721932,457.4576,141.3401)"
         d="M 416.70059 274.69351 A 45.346828 45.346828 0 1 1  326.00693,274.69351 A 45.346828 45.346828 0 1 1  416.70059 274.69351 z"
         sodipodi:ry="45.346828"
         sodipodi:rx="45.346828"
         sodipodi:cy="274.69351"
         sodipodi:cx="371.35376"
         id="path3006"
         style="opacity:1;fill:white;fill-opacity:1;fill-rule:nonzero;stroke:#204a87;stroke-width:10;stroke-linecap:round;stroke-linejoin:round;stroke-miterlimit:4;stroke-dasharray:none;stroke-opacity:1"
         sodipodi:type="arc" />
      <path
         transform="matrix(0.622622,0,0,0.622622,513.9461,256.8622)"
         d="M 416.70059 274.69351 A 45.346828 45.346828 0 1 1  326.00693,274.69351 A 45.346828 45.346828 0 1 1  416.70059 274.69351 z"
         sodipodi:ry="45.346828"
         sodipodi:rx="45.346828"
         sodipodi:cy="274.69351"
         sodipodi:cx="371.35376"
         id="path3008"
         style="opacity:1;fill:white;fill-opacity:1;fill-rule:nonzero;stroke:#204a87;stroke-width:10;stroke-linecap:round;stroke-linejoin:round;stroke-miterlimit:4;stroke-dasharray:none;stroke-opacity:1"
         sodipodi:type="arc" />
      <path
         transform="matrix(0.50345,0,0,0.50345,511.6286,343.5241)"
         d="M 416.70059 274.69351 A 45.346828 45.346828 0 1 1  326.00693,274.69351 A 45.346828 45.346828 0 1 1  416.70059 274.69351 z"
         sodipodi:ry="45.346828"
         sodipodi:rx="45.346828"
         sodipodi:cy="274.69351"
         sodipodi:cx="371.35376"
         id="path3011"
         style="opacity:1;fill:white;fill-opacity:1;fill-rule:nonzero;stroke:#204a87;stroke-width:10;stroke-linecap:round;stroke-linejoin:round;stroke-miterlimit:4;stroke-dasharray:none;stroke-opacity:1"
         sodipodi:type="arc" />
      <path
         transform="matrix(0.364416,0,0,0.364416,506.8824,413.5811)"
         d="M 416.70059 274.69351 A 45.346828 45.346828 0 1 1  326.00693,274.69351 A 45.346828 45.346828 0 1 1  416.70059 274.69351 z"
         sodipodi:ry="45.346828"
         sodipodi:rx="45.346828"
         sodipodi:cy="274.69351"
         sodipodi:cx="371.35376"
         id="path3013"
         style="opacity:1;fill:white;fill-opacity:1;fill-rule:nonzero;stroke:#204a87;stroke-width:10;stroke-linecap:round;stroke-linejoin:round;stroke-miterlimit:4;stroke-dasharray:none;stroke-opacity:1"
         sodipodi:type="arc" />
    </g>
    <path
       sodipodi:type="arc"
       style="opacity:0.68444441;fill:white;fill-opacity:1;fill-rule:nonzero;stroke:#204a87;stroke-width:10;stroke-linecap:round;stroke-linejoin:round;stroke-miterlimit:4;stroke-dasharray:none;stroke-opacity:1"
       id="path3084"
       sodipodi:cx="371.35376"
       sodipodi:cy="274.69351"
       sodipodi:rx="45.346828"
       sodipodi:ry="45.346828"
       d="M 416.70059 274.69351 A 45.346828 45.346828 0 1 1  326.00693,274.69351 A 45.346828 45.346828 0 1 1  416.70059 274.69351 z"
       transform="matrix(-0.450345,0.78002,-0.78002,-0.450345,880.2985,277.8905)"
       inkscape:export-filename="/home/acinom/af-arch/turbulence/doc/turbulence-logo.png"
       inkscape:export-xdpi="15.832354"
       inkscape:export-ydpi="15.832354" />
    <path
       sodipodi:type="arc"
       style="opacity:0.68444441;fill:white;fill-opacity:1;fill-rule:nonzero;stroke:#204a87;stroke-width:10;stroke-linecap:round;stroke-linejoin:round;stroke-miterlimit:4;stroke-dasharray:none;stroke-opacity:1"
       id="path3086"
       sodipodi:cx="371.35376"
       sodipodi:cy="274.69351"
       sodipodi:rx="45.346828"
       sodipodi:ry="45.346828"
       d="M 416.70059 274.69351 A 45.346828 45.346828 0 1 1  326.00693,274.69351 A 45.346828 45.346828 0 1 1  416.70059 274.69351 z"
       transform="matrix(-0.420552,0.728417,-0.728417,-0.420552,762.572,337.4939)"
       inkscape:export-filename="/home/acinom/af-arch/turbulence/doc/turbulence-logo.png"
       inkscape:export-xdpi="15.832354"
       inkscape:export-ydpi="15.832354" />
    <path
       sodipodi:type="arc"
       style="opacity:0.68444441;fill:white;fill-opacity:1;fill-rule:nonzero;stroke:#204a87;stroke-width:10;stroke-linecap:round;stroke-linejoin:round;stroke-miterlimit:4;stroke-dasharray:none;stroke-opacity:1"
       id="path3088"
       sodipodi:cx="371.35376"
       sodipodi:cy="274.69351"
       sodipodi:rx="45.346828"
       sodipodi:ry="45.346828"
       d="M 416.70059 274.69351 A 45.346828 45.346828 0 1 1  326.00693,274.69351 A 45.346828 45.346828 0 1 1  416.70059 274.69351 z"
       transform="matrix(-0.360966,0.625211,-0.625211,-0.360966,619.3013,410.7037)"
       inkscape:export-filename="/home/acinom/af-arch/turbulence/doc/turbulence-logo.png"
       inkscape:export-xdpi="15.832354"
       inkscape:export-ydpi="15.832354" />
    <path
       sodipodi:type="arc"
       style="opacity:0.68444441;fill:white;fill-opacity:1;fill-rule:nonzero;stroke:#204a87;stroke-width:10;stroke-linecap:round;stroke-linejoin:round;stroke-miterlimit:4;stroke-dasharray:none;stroke-opacity:1"
       id="path3090"
       sodipodi:cx="371.35376"
       sodipodi:cy="274.69351"
       sodipodi:rx="45.346828"
       sodipodi:ry="45.346828"
       d="M 416.70059 274.69351 A 45.346828 45.346828 0 1 1  326.00693,274.69351 A 45.346828 45.346828 0 1 1  416.70059 274.69351 z"
       transform="matrix(-0.311311,0.539206,-0.539206,-0.311311,488.5609,433.7284)"
       inkscape:export-filename="/home/acinom/af-arch/turbulence/doc/turbulence-logo.png"
       inkscape:export-xdpi="15.832354"
       inkscape:export-ydpi="15.832354" />
    <path
       sodipodi:type="arc"
       style="opacity:0.68444441;fill:white;fill-opacity:1;fill-rule:nonzero;stroke:#204a87;stroke-width:10;stroke-linecap:round;stroke-linejoin:round;stroke-miterlimit:4;stroke-dasharray:none;stroke-opacity:1"
       id="path3092"
       sodipodi:cx="371.35376"
       sodipodi:cy="274.69351"
       sodipodi:rx="45.346828"
       sodipodi:ry="45.346828"
       d="M 416.70059 274.69351 A 45.346828 45.346828 0 1 1  326.00693,274.69351 A 45.346828 45.346828 0 1 1  416.70059 274.69351 z"
       transform="matrix(-0.251725,0.436,-0.436,-0.251725,365.6446,415.3534)"
       inkscape:export-filename="/home/acinom/af-arch/turbulence/doc/turbulence-logo.png"
       inkscape:export-xdpi="15.832354"
       inkscape:export-ydpi="15.832354" />
    <path
       sodipodi:type="arc"
       style="opacity:0.68444441;fill:white;fill-opacity:1;fill-rule:nonzero;stroke:#204a87;stroke-width:10;stroke-linecap:round;stroke-linejoin:round;stroke-miterlimit:4;stroke-dasharray:none;stroke-opacity:1"
       id="path3094"
       sodipodi:cx="371.35376"
       sodipodi:cy="274.69351"
       sodipodi:rx="45.346828"
       sodipodi:ry="45.346828"
       d="M 416.70059 274.69351 A 45.346828 45.346828 0 1 1  326.00693,274.69351 A 45.346828 45.346828 0 1 1  416.70059 274.69351 z"
       transform="matrix(-0.182208,0.315593,-0.315593,-0.182208,277.9324,390.9217)"
       inkscape:export-filename="/home/acinom/af-arch/turbulence/doc/turbulence-logo.png"
       inkscape:export-xdpi="15.832354"
       inkscape:export-ydpi="15.832354" />
    <path
       sodipodi:type="arc"
       style="opacity:0.68444441;fill:white;fill-opacity:1;fill-rule:nonzero;stroke:#204a87;stroke-width:10;stroke-linecap:round;stroke-linejoin:round;stroke-miterlimit:4;stroke-dasharray:none;stroke-opacity:1"
       id="path3100"
       sodipodi:cx="371.35376"
       sodipodi:cy="274.69351"
       sodipodi:rx="45.346828"
       sodipodi:ry="45.346828"
       d="M 416.70059 274.69351 A 45.346828 45.346828 0 1 1  326.00693,274.69351 A 45.346828 45.346828 0 1 1  416.70059 274.69351 z"
       transform="matrix(-0.90069,-1.818423e-7,1.818423e-7,-0.90069,754.6289,627.826)"
       inkscape:export-filename="/home/acinom/af-arch/turbulence/doc/turbulence-logo.png"
       inkscape:export-xdpi="15.832354"
       inkscape:export-ydpi="15.832354" />
    <path
       sodipodi:type="arc"
       style="opacity:0.68444441;fill:white;fill-opacity:1;fill-rule:nonzero;stroke:#204a87;stroke-width:10;stroke-linecap:round;stroke-linejoin:round;stroke-miterlimit:4;stroke-dasharray:none;stroke-opacity:1"
       id="path3102"
       sodipodi:cx="371.35376"
       sodipodi:cy="274.69351"
       sodipodi:rx="45.346828"
       sodipodi:ry="45.346828"
       d="M 416.70059 274.69351 A 45.346828 45.346828 0 1 1  326.00693,274.69351 A 45.346828 45.346828 0 1 1  416.70059 274.69351 z"
       transform="matrix(-0.841104,-1.698123e-7,1.698123e-7,-0.841104,619.7473,606.5559)"
       inkscape:export-filename="/home/acinom/af-arch/turbulence/doc/turbulence-logo.png"
       inkscape:export-xdpi="15.832354"
       inkscape:export-ydpi="15.832354" />
    <path
       sodipodi:type="arc"
       style="opacity:0.68444441;fill:white;fill-opacity:1;fill-rule:nonzero;stroke:#204a87;stroke-width:10;stroke-linecap:round;stroke-linejoin:round;stroke-miterlimit:4;stroke-dasharray:none;stroke-opacity:1"
       id="path3104"
       sodipodi:cx="371.35376"
       sodipodi:cy="274.69351"
       sodipodi:rx="45.346828"
       sodipodi:ry="45.346828"
       d="M 416.70059 274.69351 A 45.346828 45.346828 0 1 1  326.00693,274.69351 A 45.346828 45.346828 0 1 1  416.70059 274.69351 z"
       transform="matrix(-0.721932,-1.457524e-7,1.457524e-7,-0.721932,482.3472,534.601)"
       inkscape:export-filename="/home/acinom/af-arch/turbulence/doc/turbulence-logo.png"
       inkscape:export-xdpi="15.832354"
       inkscape:export-ydpi="15.832354" />
    <path
       sodipodi:type="arc"
       style="opacity:0.68444441;fill:white;fill-opacity:1;fill-rule:nonzero;stroke:#204a87;stroke-width:10;stroke-linecap:round;stroke-linejoin:round;stroke-miterlimit:4;stroke-dasharray:none;stroke-opacity:1"
       id="path3106"
       sodipodi:cx="371.35376"
       sodipodi:cy="274.69351"
       sodipodi:rx="45.346828"
       sodipodi:ry="45.346828"
       d="M 416.70059 274.69351 A 45.346828 45.346828 0 1 1  326.00693,274.69351 A 45.346828 45.346828 0 1 1  416.70059 274.69351 z"
       transform="matrix(-0.622622,-1.257025e-7,1.257025e-7,-0.622622,425.8588,419.0789)"
       inkscape:export-filename="/home/acinom/af-arch/turbulence/doc/turbulence-logo.png"
       inkscape:export-xdpi="15.832354"
       inkscape:export-ydpi="15.832354" />
    <path
       sodipodi:type="arc"
       style="opacity:0.68444441;fill:white;fill-opacity:1;fill-rule:nonzero;stroke:#204a87;stroke-width:10;stroke-linecap:round;stroke-linejoin:round;stroke-miterlimit:4;stroke-dasharray:none;stroke-opacity:1"
       id="path3108"
       sodipodi:cx="371.35376"
       sodipodi:cy="274.69351"
       sodipodi:rx="45.346828"
       sodipodi:ry="45.346828"
       d="M 416.70059 274.69351 A 45.346828 45.346828 0 1 1  326.00693,274.69351 A 45.346828 45.346828 0 1 1  416.70059 274.69351 z"
       transform="matrix(-0.50345,-1.016426e-7,1.016426e-7,-0.50345,428.1763,332.417)"
       inkscape:export-filename="/home/acinom/af-arch/turbulence/doc/turbulence-logo.png"
       inkscape:export-xdpi="15.832354"
       inkscape:export-ydpi="15.832354" />
    <path
       sodipodi:type="arc"
       style="opacity:0.68444441;fill:white;fill-opacity:1;fill-rule:nonzero;stroke:#204a87;stroke-width:10;stroke-linecap:round;stroke-linejoin:round;stroke-miterlimit:4;stroke-dasharray:none;stroke-opacity:1"
       id="path3110"
       sodipodi:cx="371.35376"
       sodipodi:cy="274.69351"
       sodipodi:rx="45.346828"
       sodipodi:ry="45.346828"
       d="M 416.70059 274.69351 A 45.346828 45.346828 0 1 1  326.00693,274.69351 A 45.346828 45.346828 0 1 1  416.70059 274.69351 z"
       transform="matrix(-0.364416,-7.357275e-8,7.357275e-8,-0.364416,432.9225,262.36)"
       inkscape:export-filename="/home/acinom/af-arch/turbulence/doc/turbulence-logo.png"
       inkscape:export-xdpi="15.832354"
       inkscape:export-ydpi="15.832354" />
    <path
       sodipodi:type="arc"
       style="opacity:0.68444441;fill:white;fill-opacity:1;fill-rule:nonzero;stroke:#204a87;stroke-width:10;stroke-linecap:round;stroke-linejoin:round;stroke-miterlimit:4;stroke-dasharray:none;stroke-opacity:1"
       id="path3148"
       sodipodi:cx="371.35376"
       sodipodi:cy="274.69351"
       sodipodi:rx="45.346828"
       sodipodi:ry="45.346828"
       d="M 416.70059 274.69351 A 45.346828 45.346828 0 1 1  326.00693,274.69351 A 45.346828 45.346828 0 1 1  416.70059 274.69351 z"
       transform="matrix(0.450346,-0.780021,0.780021,0.450346,149.4756,412.5073)"
       inkscape:export-filename="/home/acinom/af-arch/turbulence/doc/turbulence-logo.png"
       inkscape:export-xdpi="15.832354"
       inkscape:export-ydpi="15.832354" />
    <path
       sodipodi:type="arc"
       style="opacity:0.68444441;fill:white;fill-opacity:1;fill-rule:nonzero;stroke:#204a87;stroke-width:10;stroke-linecap:round;stroke-linejoin:round;stroke-miterlimit:4;stroke-dasharray:none;stroke-opacity:1"
       id="path3150"
       sodipodi:cx="371.35376"
       sodipodi:cy="274.69351"
       sodipodi:rx="45.346828"
       sodipodi:ry="45.346828"
       d="M 416.70059 274.69351 A 45.346828 45.346828 0 1 1  326.00693,274.69351 A 45.346828 45.346828 0 1 1  416.70059 274.69351 z"
       transform="matrix(0.420553,-0.728418,0.728418,0.420553,269.6535,355.355)"
       inkscape:export-filename="/home/acinom/af-arch/turbulence/doc/turbulence-logo.png"
       inkscape:export-xdpi="15.832354"
       inkscape:export-ydpi="15.832354" />
    <path
       sodipodi:type="arc"
       style="opacity:0.68444441;fill:white;fill-opacity:1;fill-rule:nonzero;stroke:#204a87;stroke-width:10;stroke-linecap:round;stroke-linejoin:round;stroke-miterlimit:4;stroke-dasharray:none;stroke-opacity:1"
       id="path3152"
       sodipodi:cx="371.35376"
       sodipodi:cy="274.69351"
       sodipodi:rx="45.346828"
       sodipodi:ry="45.346828"
       d="M 416.70059 274.69351 A 45.346828 45.346828 0 1 1  326.00693,274.69351 A 45.346828 45.346828 0 1 1  416.70059 274.69351 z"
       transform="matrix(0.360967,-0.625212,0.625212,0.360967,410.4732,304.2057)"
       inkscape:export-filename="/home/acinom/af-arch/turbulence/doc/turbulence-logo.png"
       inkscape:export-xdpi="15.832354"
       inkscape:export-ydpi="15.832354" />
    <path
       sodipodi:type="arc"
       style="opacity:0.68444441;fill:white;fill-opacity:1;fill-rule:nonzero;stroke:#204a87;stroke-width:10;stroke-linecap:round;stroke-linejoin:round;stroke-miterlimit:4;stroke-dasharray:none;stroke-opacity:1"
       id="path3154"
       sodipodi:cx="371.35376"
       sodipodi:cy="274.69351"
       sodipodi:rx="45.346828"
       sodipodi:ry="45.346828"
       d="M 416.70059 274.69351 A 45.346828 45.346828 0 1 1  326.00693,274.69351 A 45.346828 45.346828 0 1 1  416.70059 274.69351 z"
       transform="matrix(0.311312,-0.539207,0.539207,0.311312,546.1162,271.3764)"
       inkscape:export-filename="/home/acinom/af-arch/turbulence/doc/turbulence-logo.png"
       inkscape:export-xdpi="15.832354"
       inkscape:export-ydpi="15.832354" />
    <path
       sodipodi:type="arc"
       style="opacity:0.68444441;fill:white;fill-opacity:1;fill-rule:nonzero;stroke:#204a87;stroke-width:10;stroke-linecap:round;stroke-linejoin:round;stroke-miterlimit:4;stroke-dasharray:none;stroke-opacity:1"
       id="path3156"
       sodipodi:cx="371.35376"
       sodipodi:cy="274.69351"
       sodipodi:rx="45.346828"
       sodipodi:ry="45.346828"
       d="M 416.70059 274.69351 A 45.346828 45.346828 0 1 1  326.00693,274.69351 A 45.346828 45.346828 0 1 1  416.70059 274.69351 z"
       transform="matrix(0.251726,-0.436001,0.436001,0.251726,661.6789,287.3002)"
       inkscape:export-filename="/home/acinom/af-arch/turbulence/doc/turbulence-logo.png"
       inkscape:export-xdpi="15.832354"
       inkscape:export-ydpi="15.832354" />
    <path
       sodipodi:type="arc"
       style="opacity:0.68444441;fill:white;fill-opacity:1;fill-rule:nonzero;stroke:#204a87;stroke-width:10;stroke-linecap:round;stroke-linejoin:round;stroke-miterlimit:4;stroke-dasharray:none;stroke-opacity:1"
       id="path3158"
       sodipodi:cx="371.35376"
       sodipodi:cy="274.69351"
       sodipodi:rx="45.346828"
       sodipodi:ry="45.346828"
       d="M 416.70059 274.69351 A 45.346828 45.346828 0 1 1  326.00693,274.69351 A 45.346828 45.346828 0 1 1  416.70059 274.69351 z"
       transform="matrix(0.182208,-0.315594,0.315594,0.182208,759.1959,309.2809)"
       inkscape:export-filename="/home/acinom/af-arch/turbulence/doc/turbulence-logo.png"
       inkscape:export-xdpi="15.832354"
       inkscape:export-ydpi="15.832354" />
    <g
       id="g3160"
       transform="matrix(1.607813,0,0,1.607813,-122.1645,-309.9453)"
       style="stroke:none;stroke-opacity:1"
       inkscape:export-filename="/home/acinom/af-arch/turbulence/doc/turbulence-logo.png"
       inkscape:export-xdpi="15.832354"
       inkscape:export-ydpi="15.832354">
      <g
         transform="translate(4.746094e-6,1.277798)"
         id="g2913"
         style="stroke:none;stroke-opacity:1">
        <path
           style="fill:#204a87;fill-opacity:1;fill-rule:evenodd;stroke:none;stroke-width:0.25780901px;stroke-linecap:butt;stroke-linejoin:miter;stroke-opacity:1"
           d="M 197.79761,397.48699 C 177.97916,397.48699 177.97916,412.158 177.97916,412.158 L 177.97916,454.99734 C 189.8697,455.02022 196.9784,451.31782 197.4927,442.47808 L 197.79761,397.48699 z "
           id="path2786"
           sodipodi:nodetypes="ccccc" />
        <path
           style="fill:#204a87;fill-opacity:1;fill-rule:evenodd;stroke:none;stroke-width:0.25780901px;stroke-linecap:butt;stroke-linejoin:miter;stroke-opacity:1"
           d="M 209.29388,453.80078 C 229.11233,453.80078 229.11233,439.12977 229.11233,439.12977 L 229.11233,396.29042 C 217.22179,396.26754 210.11309,399.96994 209.59879,408.80968 L 209.29388,453.80078 z "
           id="path2788"
           sodipodi:nodetypes="ccccc" />
        <path
           style="fill:#204a87;fill-opacity:1;fill-rule:evenodd;stroke:none;stroke-width:0.25780901px;stroke-linecap:butt;stroke-linejoin:miter;stroke-opacity:1"
           d="M 160.55511,454.99745 C 160.55511,443.25851 177.85062,443.25851 177.85062,443.25851 L 228.3535,443.25851 C 228.38047,450.30156 224.01575,454.51221 213.59466,454.81684 L 160.55511,454.99745 z "
           id="path2790"
           sodipodi:nodetypes="ccccc" />
      </g>
      <g
         transform="translate(3.132225,2.633738)"
         id="g2840"
         style="stroke:none;stroke-opacity:1">
        <path
           style="fill:#204a87;fill-opacity:1;fill-rule:evenodd;stroke:none;stroke-width:0.25780901px;stroke-linecap:butt;stroke-linejoin:miter;stroke-opacity:1"
           d="M 246.66952,453.64151 C 266.48797,453.64151 266.48797,438.9705 266.48797,438.9705 L 266.48797,396.13115 C 254.59743,396.10827 247.48873,399.81067 246.97443,408.65041 L 246.66952,453.64151 z "
           id="path2792"
           sodipodi:nodetypes="ccccc" />
        <path
           style="fill:#204a87;fill-opacity:1;fill-rule:evenodd;stroke:none;stroke-width:0.25780901px;stroke-linecap:butt;stroke-linejoin:miter;stroke-opacity:1"
           d="M 298.81286,393.1006 C 278.99441,393.1006 278.99441,407.77161 278.99441,407.77161 L 278.99441,450.61095 C 290.88495,450.63383 297.99365,446.93143 298.50795,438.09169 L 298.81286,393.1006 z "
           id="path2794"
           sodipodi:nodetypes="ccccc" />
        <path
           style="fill:#204a87;fill-opacity:1;fill-rule:evenodd;stroke:none;stroke-width:0.25780901px;stroke-linecap:butt;stroke-linejoin:miter;stroke-opacity:1"
           d="M 231.77087,405.50193 C 231.77087,393.76299 249.06638,393.76299 249.06638,393.76299 L 299.56926,393.76299 C 299.59623,400.80604 295.23151,405.01669 284.81042,405.32132 L 231.77087,405.50193 z "
           id="path2796"
           sodipodi:nodetypes="ccccc" />
        <path
           style="fill:white;fill-opacity:1;fill-rule:evenodd;stroke:none;stroke-width:0.65600002;stroke-linecap:round;stroke-linejoin:round;stroke-miterlimit:4;stroke-dasharray:none;stroke-opacity:1"
           d="M 283.14311,393.82734 C 295.65408,394.01642 298.56226,396.20977 298.67396,406.96652 L 300.40878,392.56495 L 283.14311,393.82734 z "
           id="path2798"
           sodipodi:nodetypes="cccc" />
        <path
           style="fill:#204a87;fill-opacity:1;fill-rule:evenodd;stroke:none;stroke-width:0.65600002;stroke-linecap:round;stroke-linejoin:round;stroke-miterlimit:4;stroke-dasharray:none;stroke-opacity:1"
           d="M 263.66029,405.09956 C 276.17126,405.28864 279.07944,407.48199 279.19114,418.23874 L 280.92596,403.83717 L 263.66029,405.09956 z "
           id="path2808"
           sodipodi:nodetypes="cccc" />
        <path
           style="fill:white;fill-opacity:1;fill-rule:evenodd;stroke:none;stroke-width:0.65600002;stroke-linecap:round;stroke-linejoin:round;stroke-miterlimit:4;stroke-dasharray:none;stroke-opacity:1"
           d="M 298.49807,432.2942 C 299.92106,420.5663 298.33954,418.99686 298.77847,407.85105 C 298.03545,419.7312 296.00644,420.47893 288.39282,421.20421 C 297.22144,421.13589 298.13996,423.60067 298.49807,432.2942 z "
           id="path2810"
           sodipodi:nodetypes="cccc"
           inkscape:transform-center-x="-45.808353"
           inkscape:transform-center-y="-10.44842" />
        <path
           style="fill:#204a87;fill-opacity:1;fill-rule:evenodd;stroke:none;stroke-width:0.25780901px;stroke-linecap:butt;stroke-linejoin:miter;stroke-opacity:1"
           d="M 247.22045,421.89437 C 247.22045,410.15543 259.93217,410.15543 259.93217,410.15543 L 297.0504,410.15543 C 297.07022,417.19848 293.86227,421.40913 286.20306,421.71376 L 247.22045,421.89437 z "
           id="path2812"
           sodipodi:nodetypes="ccccc" />
      </g>
      <g
         transform="translate(6.467016,3.336168)"
         id="g2922"
         style="stroke:none;stroke-opacity:1">
        <path
           style="fill:#204a87;fill-opacity:1;fill-rule:evenodd;stroke:none;stroke-width:0.25780901px;stroke-linecap:butt;stroke-linejoin:miter;stroke-opacity:1"
           d="M 319.0826,452.93908 C 338.90105,452.93908 338.90105,438.26807 338.90105,438.26807 L 338.90105,395.42872 C 327.01051,395.40584 319.90181,399.10824 319.38751,407.94798 L 319.0826,452.93908 z "
           id="path2826"
           sodipodi:nodetypes="ccccc" />
        <path
           style="fill:#204a87;fill-opacity:1;fill-rule:evenodd;stroke:none;stroke-width:0.25780901px;stroke-linecap:butt;stroke-linejoin:miter;stroke-opacity:1"
           d="M 371.22594,392.39817 C 351.40749,392.39817 351.40749,407.06918 351.40749,407.06918 L 351.40749,449.90852 C 363.29803,449.9314 370.40673,446.229 370.92103,437.38926 L 371.22594,392.39817 z "
           id="path2828"
           sodipodi:nodetypes="ccccc" />
        <path
           style="fill:#204a87;fill-opacity:1;fill-rule:evenodd;stroke:none;stroke-width:0.25780901px;stroke-linecap:butt;stroke-linejoin:miter;stroke-opacity:1"
           d="M 304.18395,404.7995 C 304.18395,393.06056 321.47946,393.06056 321.47946,393.06056 L 371.98234,393.06056 C 372.00931,400.10361 367.64459,404.31426 357.2235,404.61889 L 304.18395,404.7995 z "
           id="path2830"
           sodipodi:nodetypes="ccccc" />
        <path
           style="fill:white;fill-opacity:1;fill-rule:evenodd;stroke:none;stroke-width:0.65600002;stroke-linecap:round;stroke-linejoin:round;stroke-miterlimit:4;stroke-dasharray:none;stroke-opacity:1"
           d="M 355.55619,393.12491 C 368.06716,393.31399 370.97534,395.50734 371.08704,406.26409 L 372.82186,391.86252 L 355.55619,393.12491 z "
           id="path2832"
           sodipodi:nodetypes="cccc" />
        <path
           style="fill:#204a87;fill-opacity:1;fill-rule:evenodd;stroke:none;stroke-width:0.65600002;stroke-linecap:round;stroke-linejoin:round;stroke-miterlimit:4;stroke-dasharray:none;stroke-opacity:1"
           d="M 336.07337,404.39713 C 348.58434,404.58621 351.49252,406.77956 351.60422,417.53631 L 353.33904,403.13474 L 336.07337,404.39713 z "
           id="path2834"
           sodipodi:nodetypes="cccc" />
        <path
           style="fill:white;fill-opacity:1;fill-rule:evenodd;stroke:none;stroke-width:0.65600002;stroke-linecap:round;stroke-linejoin:round;stroke-miterlimit:4;stroke-dasharray:none;stroke-opacity:1"
           d="M 370.91115,431.59177 C 372.33414,419.86387 370.75262,418.29443 371.19155,407.14862 C 370.44853,419.02877 368.41952,419.7765 360.8059,420.50178 C 369.63452,420.43346 370.55304,422.89824 370.91115,431.59177 z "
           id="path2836"
           sodipodi:nodetypes="cccc"
           inkscape:transform-center-x="-45.808353"
           inkscape:transform-center-y="-10.44842" />
        <path
           style="fill:#204a87;fill-opacity:1;fill-rule:evenodd;stroke:none;stroke-width:0.25780901px;stroke-linecap:butt;stroke-linejoin:miter;stroke-opacity:1"
           d="M 319.63353,421.19194 C 319.63353,409.453 332.34525,409.453 332.34525,409.453 L 369.46348,409.453 C 369.4833,416.49605 366.27535,420.7067 358.61614,421.01133 L 319.63353,421.19194 z "
           id="path2838"
           sodipodi:nodetypes="ccccc" />
        <path
           style="fill:#204a87;fill-opacity:1;fill-rule:evenodd;stroke:none;stroke-width:0.25780901px;stroke-linecap:butt;stroke-linejoin:miter;stroke-opacity:1"
           d="M 302.86476,452.61467 C 302.86476,440.87573 320.16027,440.87573 320.16027,440.87573 L 370.66315,440.87573 C 370.69012,447.91878 366.3254,452.12943 355.90431,452.43406 L 302.86476,452.61467 z "
           id="path2861"
           sodipodi:nodetypes="ccccc" />
        <path
           style="fill:#204a87;fill-opacity:1;fill-rule:evenodd;stroke:none;stroke-width:0.65600002;stroke-linecap:round;stroke-linejoin:round;stroke-miterlimit:4;stroke-dasharray:none;stroke-opacity:1"
           d="M 335.66635,421.09943 C 348.17732,421.28851 351.0855,423.48186 351.1972,434.23861 L 352.93202,419.83704 L 335.66635,421.09943 z "
           id="path2863"
           sodipodi:nodetypes="cccc" />
      </g>
      <g
         transform="translate(2.3402,5.100508)"
         id="g2933"
         style="stroke:none;stroke-opacity:1">
        <path
           style="fill:#204a87;fill-opacity:1;fill-rule:evenodd;stroke:none;stroke-width:0.25780901px;stroke-linecap:butt;stroke-linejoin:miter;stroke-opacity:1"
           d="M 415.07958,393.66428 C 395.26113,393.66428 395.26113,408.33529 395.26113,408.33529 L 395.26113,451.17463 C 407.15167,451.19751 414.26037,447.49511 414.77467,438.65537 L 415.07958,393.66428 z "
           id="path2865"
           sodipodi:nodetypes="ccccc" />
        <path
           style="fill:#204a87;fill-opacity:1;fill-rule:evenodd;stroke:none;stroke-width:0.25780901px;stroke-linecap:butt;stroke-linejoin:miter;stroke-opacity:1"
           d="M 426.57585,449.97807 C 446.3943,449.97807 446.3943,435.30706 446.3943,435.30706 L 446.3943,392.46771 C 434.50376,392.44483 427.39506,396.14723 426.88076,404.98697 L 426.57585,449.97807 z "
           id="path2867"
           sodipodi:nodetypes="ccccc" />
        <path
           style="fill:#204a87;fill-opacity:1;fill-rule:evenodd;stroke:none;stroke-width:0.25780901px;stroke-linecap:butt;stroke-linejoin:miter;stroke-opacity:1"
           d="M 377.83708,451.17474 C 377.83708,439.4358 395.13259,439.4358 395.13259,439.4358 L 445.63547,439.4358 C 445.66244,446.47885 441.29772,450.6895 430.87663,450.99413 L 377.83708,451.17474 z "
           id="path2869"
           sodipodi:nodetypes="ccccc" />
      </g>
      <g
         transform="translate(3.920351,7.998648)"
         id="g2938"
         style="stroke:none;stroke-opacity:1">
        <path
           style="fill:#204a87;fill-opacity:1;fill-rule:evenodd;stroke:none;stroke-width:0.25780901px;stroke-linecap:butt;stroke-linejoin:miter;stroke-opacity:1"
           d="M 475.36088,390.76614 C 455.54243,390.76614 455.54243,405.43715 455.54243,405.43715 L 455.54243,448.27649 C 467.43297,448.29937 474.54167,444.59697 475.05597,435.75723 L 475.36088,390.76614 z "
           id="path2871"
           sodipodi:nodetypes="ccccc" />
        <path
           style="fill:#204a87;fill-opacity:1;fill-rule:evenodd;stroke:none;stroke-width:0.25780901px;stroke-linecap:butt;stroke-linejoin:miter;stroke-opacity:1"
           d="M 455.50728,448.2766 C 455.50728,436.53766 466.5925,436.53766 466.5925,436.53766 L 498.96133,436.53766 C 498.97861,443.58071 496.18113,447.79136 489.50194,448.09599 L 455.50728,448.2766 z "
           id="path2875"
           sodipodi:nodetypes="ccccc" />
      </g>
      <g
         transform="translate(4.676775,8.596988)"
         id="g2942"
         style="stroke:none;stroke-opacity:1">
        <path
           style="fill:#204a87;fill-opacity:1;fill-rule:evenodd;stroke:none;stroke-width:0.25780901px;stroke-linecap:butt;stroke-linejoin:miter;stroke-opacity:1"
           d="M 523.84936,390.1678 C 504.03091,390.1678 504.03091,404.83881 504.03091,404.83881 L 504.03091,447.67815 C 515.92145,447.70103 523.03015,443.99863 523.54445,435.15889 L 523.84936,390.1678 z "
           id="path2877"
           sodipodi:nodetypes="ccccc" />
        <path
           style="fill:#204a87;fill-opacity:1;fill-rule:evenodd;stroke:none;stroke-width:0.25780901px;stroke-linecap:butt;stroke-linejoin:miter;stroke-opacity:1"
           d="M 503.99576,447.67826 C 503.99576,435.93932 515.08098,435.93932 515.08098,435.93932 L 547.44981,435.93932 C 547.46709,442.98237 544.66961,447.19302 537.99042,447.49765 L 503.99576,447.67826 z "
           id="path2879"
           sodipodi:nodetypes="ccccc" />
        <path
           style="fill:#204a87;fill-opacity:1;fill-rule:evenodd;stroke:none;stroke-width:0.25780901px;stroke-linecap:butt;stroke-linejoin:miter;stroke-opacity:1"
           d="M 504.57539,402.187 C 504.57539,390.44806 515.36488,390.44806 515.36488,390.44806 L 546.87018,390.44806 C 546.88701,397.49111 544.16416,401.70176 537.66315,402.00639 L 504.57539,402.187 z "
           id="path2881"
           sodipodi:nodetypes="ccccc" />
        <path
           style="fill:#204a87;fill-opacity:1;fill-rule:evenodd;stroke:none;stroke-width:0.25780901px;stroke-linecap:butt;stroke-linejoin:miter;stroke-opacity:1"
           d="M 506.31428,424.7925 C 506.31428,413.05356 517.10377,413.05356 517.10377,413.05356 L 548.60907,413.05356 C 548.6259,420.09661 545.90305,424.30726 539.40204,424.61189 L 506.31428,424.7925 z "
           id="path2883"
           sodipodi:nodetypes="ccccc" />
      </g>
      <g
         transform="translate(-1.37847,9.157913)"
         id="g2948"
         style="stroke:none;stroke-opacity:1">
        <path
           style="fill:#204a87;fill-opacity:1;fill-rule:evenodd;stroke:none;stroke-width:0.25780901px;stroke-linecap:butt;stroke-linejoin:miter;stroke-opacity:1"
           d="M 580.27363,389.60688 C 560.45518,389.60688 560.45518,404.27789 560.45518,404.27789 L 560.45518,447.11723 C 572.34572,447.14011 579.45442,443.43771 579.96872,434.59797 L 580.27363,389.60688 z "
           id="path2885"
           sodipodi:nodetypes="ccccc" />
        <path
           style="fill:#204a87;fill-opacity:1;fill-rule:evenodd;stroke:none;stroke-width:0.25780901px;stroke-linecap:butt;stroke-linejoin:miter;stroke-opacity:1"
           d="M 591.7699,445.92067 C 611.58835,445.92067 611.58835,431.24966 611.58835,431.24966 L 611.58835,388.41031 C 599.69781,388.38743 592.58911,392.08983 592.07481,400.92957 L 591.7699,445.92067 z "
           id="path2887"
           sodipodi:nodetypes="ccccc" />
        <path
           style="fill:#204a87;fill-opacity:1;fill-rule:evenodd;stroke:none;stroke-width:0.25780901px;stroke-linecap:butt;stroke-linejoin:miter;stroke-opacity:1"
           d="M 580.57624,389.20682 C 569.50159,392.36817 575.23727,405.61856 575.23727,405.61856 L 591.98542,444.30966 C 598.63886,442.43359 601.16377,437.95575 597.99524,429.88994 L 580.57624,389.20682 z "
           id="path2889"
           sodipodi:nodetypes="ccccc" />
      </g>
      <g
         transform="translate(0.61407,11.46331)"
         id="g2953"
         style="stroke:none;stroke-opacity:1">
        <path
           style="fill:#204a87;fill-opacity:1;fill-rule:evenodd;stroke:none;stroke-width:0.25780901px;stroke-linecap:butt;stroke-linejoin:miter;stroke-opacity:1"
           d="M 636.87687,386.69003 C 617.05842,386.69003 617.05842,401.36104 617.05842,401.36104 L 617.05842,444.20038 C 628.94896,444.22326 636.05766,440.52086 636.57196,431.68112 L 636.87687,386.69003 z "
           id="path2891"
           sodipodi:nodetypes="ccccc" />
        <path
           style="fill:#204a87;fill-opacity:1;fill-rule:evenodd;stroke:none;stroke-width:0.25780901px;stroke-linecap:butt;stroke-linejoin:miter;stroke-opacity:1"
           d="M 617.02327,444.20049 C 617.02327,432.46155 628.10849,432.46155 628.10849,432.46155 L 660.47732,432.46155 C 660.4946,439.5046 657.69712,443.71525 651.01793,444.01988 L 617.02327,444.20049 z "
           id="path2893"
           sodipodi:nodetypes="ccccc" />
        <path
           style="fill:white;fill-opacity:1;fill-rule:evenodd;stroke:none;stroke-width:0.65600002;stroke-linecap:round;stroke-linejoin:round;stroke-miterlimit:4;stroke-dasharray:none;stroke-opacity:1"
           d="M 632.65161,444.00047 C 620.14055,443.81769 617.23127,441.1662 617.11416,430.4095 L 615.38659,444.81194 L 632.65161,444.00047 z "
           id="path2806"
           sodipodi:nodetypes="cccc" />
        <path
           style="fill:#204a87;fill-opacity:1;fill-rule:evenodd;stroke:none;stroke-width:0.25780901px;stroke-linecap:butt;stroke-linejoin:miter;stroke-opacity:1"
           d="M 617.6029,398.70923 C 617.6029,386.97029 628.39239,386.97029 628.39239,386.97029 L 659.89769,386.97029 C 659.91452,394.01334 657.19167,398.22399 650.69066,398.52862 L 617.6029,398.70923 z "
           id="path2895"
           sodipodi:nodetypes="ccccc" />
      </g>
      <g
         transform="translate(1.217395e-4,11.57792)"
         id="g2959"
         style="stroke:none;stroke-opacity:1">
        <path
           style="fill:#204a87;fill-opacity:1;fill-rule:evenodd;stroke:none;stroke-width:0.25780901px;stroke-linecap:butt;stroke-linejoin:miter;stroke-opacity:1"
           d="M 688.37241,386.57542 C 668.55396,386.57542 668.55396,401.24643 668.55396,401.24643 L 668.55396,444.08577 C 680.4445,444.10865 687.5532,440.40625 688.0675,431.56651 L 688.37241,386.57542 z "
           id="path2901"
           sodipodi:nodetypes="ccccc" />
        <path
           style="fill:#204a87;fill-opacity:1;fill-rule:evenodd;stroke:none;stroke-width:0.25780901px;stroke-linecap:butt;stroke-linejoin:miter;stroke-opacity:1"
           d="M 668.51881,444.08588 C 668.51881,432.34694 679.60403,432.34694 679.60403,432.34694 L 711.97286,432.34694 C 711.99014,439.38999 709.19266,443.60064 702.51347,443.90527 L 668.51881,444.08588 z "
           id="path2903"
           sodipodi:nodetypes="ccccc" />
        <path
           style="fill:white;fill-opacity:1;fill-rule:evenodd;stroke:none;stroke-width:0.65600002;stroke-linecap:round;stroke-linejoin:round;stroke-miterlimit:4;stroke-dasharray:none;stroke-opacity:1"
           d="M 684.14715,443.88586 C 671.63609,443.70308 668.72681,441.05159 668.6097,430.29489 L 666.88213,444.69733 L 684.14715,443.88586 z "
           id="path2905"
           sodipodi:nodetypes="cccc" />
        <path
           style="fill:#204a87;fill-opacity:1;fill-rule:evenodd;stroke:none;stroke-width:0.25780901px;stroke-linecap:butt;stroke-linejoin:miter;stroke-opacity:1"
           d="M 669.09844,398.59462 C 669.09844,386.85568 679.88793,386.85568 679.88793,386.85568 L 711.39323,386.85568 C 711.41006,393.89873 708.68721,398.10938 702.1862,398.41401 L 669.09844,398.59462 z "
           id="path2907"
           sodipodi:nodetypes="ccccc" />
        <path
           style="fill:#204a87;fill-opacity:1;fill-rule:evenodd;stroke:none;stroke-width:0.25780901px;stroke-linecap:butt;stroke-linejoin:miter;stroke-opacity:1"
           d="M 670.83733,421.20012 C 670.83733,409.46118 681.62682,409.46118 681.62682,409.46118 L 713.13212,409.46118 C 713.14895,416.50423 710.4261,420.71488 703.92509,421.01951 L 670.83733,421.20012 z "
           id="path2909"
           sodipodi:nodetypes="ccccc" />
      </g>
      <g
         id="g2918"
         style="stroke:none;stroke-opacity:1">
        <path
           style="fill:#204a87;fill-opacity:1;fill-rule:evenodd;stroke:none;stroke-width:0.25780901px;stroke-linecap:butt;stroke-linejoin:miter;stroke-opacity:1"
           d="M 84.039274,385.37789 C 84.039274,368.7874 246.58505,368.7874 246.58505,368.7874 L 721.21864,368.7874 C 721.47215,378.74125 680.45183,384.69212 582.51294,385.12265 L 84.039274,385.37789 z "
           id="path1872"
           sodipodi:nodetypes="ccccc" />
        <path
           style="fill:#204a87;fill-opacity:1;fill-rule:evenodd;stroke:none;stroke-width:0.26829928px;stroke-linecap:butt;stroke-linejoin:miter;stroke-opacity:1"
           d="M 150.17413,384.87909 L 150.17413,456.25065 C 137.30124,456.81675 133.65382,447.54721 132.98363,435.10352 L 132.98363,384.87909 L 150.17413,384.87909 z "
           id="path1874"
           sodipodi:nodetypes="ccccc" />
      </g>
    </g>
  </g>
</svg>
